<svg xmlns="http://www.w3.org/2000/svg" xmlns:xlink="http://www.w3.org/1999/xlink" version="1.1" x="0px" y="0px" viewBox="0 0 100 125" enable-background="new 0 0 100 100" xml:space="preserve"><g><g><path fill="none" d="M58.021,52.75c-0.51-0.194-0.882-0.636-0.99-1.171c-0.107-0.533,0.068-1.085,0.463-1.461    c1.616-1.535,2.475-3.611,3.384-5.809c0.409-0.992,0.824-1.987,1.308-2.958c0.587-1.176,1.322-2.378,2.103-3.648    c1.13-1.847,2.291-3.741,2.954-5.518c-1.035-0.043-2.078-0.068-3.122-0.097c-3.365-0.087-6.844-0.176-10.197-0.804    c-0.508-0.095-0.936-0.43-1.151-0.899c-0.215-0.469-0.188-1.012,0.07-1.459c1.5-2.58,2.51-5.958,3.58-9.534    c1.173-3.923,2.378-7.95,4.351-11.218C55.6,8.179,49.652,8.859,44.714,9.423c-2.13,0.244-4.091,0.467-5.752,0.612    c-0.027,0.076-0.058,0.153-0.097,0.229c-2.116,4.045-2.793,10.474-3.339,15.639l-0.19,1.768    c-0.609,5.557-1.496,11.445-2.58,17.176c2.956-0.719,7.309-1.438,11.247-0.806c0.459,0.072,0.859,0.343,1.101,0.74    c0.242,0.395,0.3,0.876,0.155,1.316c-1.878,5.78-3.991,11.59-6.061,16.68c0.926-0.126,1.863-0.176,2.808-0.176    c1.678,0,3.372,0.155,5.041,0.308c0.88,0.081,1.75,0.159,2.595,0.211c0.75,0.048,1.366,0.614,1.473,1.357    c0.43,2.95-0.24,6.006-0.884,8.96c-0.485,2.215-0.942,4.307-0.959,6.303c-0.021,2.518-0.328,4.902-0.624,7.208    c-0.023,0.178-0.045,0.355-0.068,0.531c1.122-1.95,2.165-4.029,3.192-6.07c0.942-1.876,1.832-3.646,2.781-5.33    c1.386-2.465,2.587-5.413,3.855-8.53c2.074-5.101,4.208-10.346,7.47-14.271c-0.653-0.014-1.314,0.017-2,0.048    C61.963,53.413,59.973,53.5,58.021,52.75z"/><path fill="#000000" d="M69.662,50.76c-1.971-0.779-3.981-0.688-5.923-0.605c-0.764,0.035-1.508,0.068-2.223,0.043    c0.975-1.487,1.642-3.101,2.295-4.677c0.38-0.923,0.762-1.851,1.213-2.754c0.527-1.052,1.227-2.196,1.969-3.409    c1.671-2.725,3.396-5.545,3.863-8.398c0.072-0.442-0.045-0.892-0.322-1.242c-0.279-0.351-0.69-0.568-1.136-0.597    c-1.715-0.116-3.452-0.161-5.196-0.207c-2.512-0.064-5.093-0.132-7.574-0.43c1.138-2.508,1.998-5.384,2.837-8.185    c1.403-4.694,2.855-9.547,5.543-12.575c0.403-0.455,0.51-1.099,0.279-1.661c-0.233-0.56-0.764-0.94-1.372-0.977    C57.901,4.723,50.387,5.58,44.355,6.27c-2.225,0.254-4.26,0.485-5.958,0.628c-0.661,0.054-1.196,0.508-1.382,1.107    c-0.401,0.116-0.754,0.388-0.963,0.787c-2.394,4.582-3.107,11.344-3.681,16.777l-0.186,1.754    c-0.692,6.285-1.74,12.999-3.031,19.42c-0.109,0.547,0.076,1.116,0.494,1.49c0.415,0.376,0.996,0.506,1.533,0.337    c3.673-1.142,7.433-1.715,10.443-1.576c-2.054,6.152-4.411,12.427-6.566,17.47c-0.252,0.589-0.124,1.273,0.322,1.731    c0.444,0.457,1.126,0.599,1.723,0.368c2.81-1.12,6.291-0.797,9.654-0.494c0.442,0.041,0.882,0.081,1.318,0.118    c0.043,2.043-0.44,4.256-0.946,6.574c-0.498,2.275-1.012,4.628-1.031,6.956c-0.019,2.326-0.3,4.514-0.599,6.828    c-0.281,2.198-0.574,4.473-0.614,6.842c-0.01,0.673,0.405,1.281,1.035,1.514C46.1,94.967,46.286,95,46.472,95    c0.463,0,0.913-0.202,1.219-0.572c2.75-3.305,4.867-7.518,6.915-11.592c0.905-1.799,1.793-3.568,2.711-5.198    c1.487-2.642,2.723-5.679,4.031-8.894c2.359-5.803,4.801-11.807,8.782-15.319c0.415-0.366,0.609-0.919,0.512-1.465    C70.547,51.417,70.175,50.963,69.662,50.76z M58.407,67.55c-1.268,3.117-2.469,6.066-3.855,8.53    c-0.948,1.684-1.839,3.454-2.781,5.33c-1.027,2.041-2.07,4.119-3.192,6.07c0.023-0.176,0.045-0.353,0.068-0.531    c0.295-2.306,0.603-4.69,0.624-7.208c0.017-1.996,0.473-4.088,0.959-6.303c0.645-2.954,1.314-6.01,0.884-8.96    c-0.107-0.744-0.723-1.31-1.473-1.357c-0.845-0.052-1.715-0.13-2.595-0.211c-1.669-0.153-3.363-0.308-5.041-0.308    c-0.944,0-1.882,0.05-2.808,0.176c2.07-5.09,4.184-10.9,6.061-16.68c0.145-0.44,0.087-0.921-0.155-1.316    c-0.242-0.397-0.643-0.667-1.101-0.74c-3.938-0.632-8.291,0.087-11.247,0.806c1.085-5.731,1.971-11.619,2.58-17.176l0.19-1.768    c0.545-5.165,1.223-11.594,3.339-15.639c0.039-0.076,0.07-0.153,0.097-0.229c1.661-0.145,3.622-0.368,5.752-0.612    c4.938-0.564,10.885-1.244,16.061-1.25c-1.973,3.268-3.177,7.295-4.351,11.218c-1.07,3.576-2.08,6.954-3.58,9.534    c-0.258,0.446-0.285,0.99-0.07,1.459c0.215,0.469,0.643,0.804,1.151,0.899c3.353,0.628,6.832,0.717,10.197,0.804    c1.043,0.029,2.087,0.054,3.122,0.097c-0.663,1.777-1.824,3.671-2.954,5.518c-0.781,1.271-1.516,2.473-2.103,3.648    c-0.483,0.971-0.899,1.967-1.308,2.958c-0.909,2.198-1.768,4.274-3.384,5.809c-0.395,0.376-0.57,0.928-0.463,1.461    c0.107,0.535,0.479,0.977,0.99,1.171c1.952,0.75,3.942,0.663,5.857,0.576c0.686-0.031,1.347-0.062,2-0.048    C62.615,57.204,60.481,62.449,58.407,67.55z"/></g></g><text x="0" y="115" fill="#000000" font-size="5px" font-weight="bold" font-family="'Helvetica Neue', Helvetica, Arial-Unicode, Arial, Sans-serif">Created by Valeriy</text><text x="0" y="120" fill="#000000" font-size="5px" font-weight="bold" font-family="'Helvetica Neue', Helvetica, Arial-Unicode, Arial, Sans-serif">from the Noun Project</text></svg>